<svg xmlns="http://www.w3.org/2000/svg" width="17.99" height="296.34" viewBox="0 0 17.99 296.34"><title>Asset 8</title><g id="Layer_2" data-name="Layer 2"><g id="Layer_1-2" data-name="Layer 1"><path id="Path_6" data-name="Path 6" d="M12.31,3.51S11.51.66,8.8.51A3.3,3.3,0,0,0,5.37,3.58,4.87,4.87,0,0,0,7,8.05H0l.49,2.86H17.77V8.05H9.9A3.07,3.07,0,0,1,7.33,5,1.38,1.38,0,0,1,8.78,3.41c1.76,0,2.52,2.91,2.64,3.46l.25,0,6.1-3.61V0ZM15.91,16c0,1.15-.52,2.7-4.34,2.7S7.4,17.08,7.4,16.07a2.27,2.27,0,0,1,1-1.76l-1.5-1.57a3.82,3.82,0,0,0-1.67,3.31c0,3.16,2.38,5.61,6.7,5.61,3.57,0,6-1.57,6-5.34a7.78,7.78,0,0,0-.74-3.46l-1.76.69A9.46,9.46,0,0,1,15.91,16ZM5.24,28.74c0,3.76,2.82,5.59,6.52,5.59C15.64,34.33,18,32.72,18,29s-2.82-5.59-6.5-5.59C7.6,23.38,5.24,25,5.24,28.74Zm10.69,0c0,2.11-2,2.6-4.41,2.6S7.3,30.88,7.3,29c0-2.11,2-2.6,4.44-2.6S15.93,26.83,15.93,28.72Zm-.45,6.68a7.26,7.26,0,0,1,.34,2c0,.58-.17,1.13-1,1.13H7.56V35.87l-2-.34v3H2l.54,2.26,2.95.48v2.16h2v-2h7.57c2,0,2.75-1.36,2.75-3.21a8.76,8.76,0,0,0-.57-3.21ZM8,48C7.23,50,6.4,50.9,4.92,50.9c-1.17,0-1.71-1-1.71-2.18a8.31,8.31,0,0,1,1.13-3.45l-2.11-1.2a10,10,0,0,0-1.3,4.8c0,3,2,5.22,4.41,5.22,2.85,0,4-1.76,5.22-4.71.62-1.52,1.15-2.45,2.63-2.45s2.42.86,2.42,2.58c0,1.39-1.55,4.09-1.57,4.09l2.26,1a10.83,10.83,0,0,0,1.59-5.32c0-3.58-2.5-5.51-5-5.51C10.17,43.8,9,45.36,8,48Z" fill="#e6b66c"/><path d="M8.72,75.69c-2,0-3.48,1.17-3.48,4.09,0,3.33,2.33,5.91,6.7,5.91,3.57,0,6-1.52,6-5.3a11.19,11.19,0,0,0-1.13-4.61l-1.74.74A11.6,11.6,0,0,1,15.91,80c0,1.94-1.25,2.55-2.77,2.72C13.09,78.41,11.08,75.69,8.72,75.69Zm2.65,7.1c-2,0-4.21-.63-4.21-2.79a1.45,1.45,0,0,1,1.56-1.52C9.88,78.48,11.25,79.68,11.37,82.79Z" fill="#40aba7"/><path d="M9.58,56.67h8.19v2.65h-8c-1.37,0-2.23.37-2.23,1.41,0,1.22,1.45,2.68,3.7,2.68h6.52v2.86h-8c-1.37,0-2.23.37-2.23,1.42,0,1.32,1.57,2.66,4.14,2.66h6.08v2.86H11.59c-3.89,0-5.22,1.21-5.22,1.21l-.88-2.21A5.14,5.14,0,0,1,8.14,71a4.28,4.28,0,0,1-2.77-4.1,3,3,0,0,1,2.28-3A4.25,4.25,0,0,1,5.37,60C5.37,57.48,7.06,56.67,9.58,56.67Z" fill="#40aba7"/><path d="M1.23,88.89l16.54-1v2.7l-6.31.27c-.8,0-2.48.1-4.05.12,1.61.59,3.34,1.25,4,1.51l6.33,2.73v2l-6.26,2.75c-.73.32-2.53,1-4.19,1.64,1.68,0,3.43.07,4.07.09l6.38.25v2.73l-16.54-1v-2.26l10.33-4.17c.73-.29,1.65-.71,2.51-1-.83-.32-1.73-.71-2.51-1L1.23,91.11Z" fill="#40aba7"/><line x1="9.99" y1="109.34" x2="9.99" y2="296.34" fill="none" opacity="0"/></g></g></svg>